<svg width="116" height="33" viewBox="0 0 116 33" fill="none" xmlns="http://www.w3.org/2000/svg">
<g clip-path="url(#clip0_17_1870)">
<path fill-rule="evenodd" clip-rule="evenodd" d="M32.045 21.9263C31.9131 21.7931 31.6948 21.8071 31.5747 21.951C31.4277 22.1269 31.274 22.2971 31.114 22.4613C28.1291 25.5211 23.5192 25.8985 20.1331 23.5938C19.9126 23.4436 19.8904 23.1321 20.0767 22.9413L33.2047 9.48179C33.4928 9.18643 33.5204 8.7215 33.2468 8.413C33.1262 8.27698 33.0023 8.14385 32.8753 8.01371C28.4985 3.52522 21.4006 3.52522 17.0227 8.01371C16.8091 8.23256 16.6043 8.45983 16.4088 8.69497C16.3607 8.7534 16.3362 8.82771 16.3402 8.90327C16.3441 8.97883 16.3762 9.05018 16.4301 9.10329L17.7772 10.4497C17.9102 10.5826 18.1299 10.5667 18.2486 10.4207C18.418 10.2124 18.5966 10.0118 18.784 9.81955C21.7688 6.75922 26.3798 6.3818 29.7652 8.68676C29.9857 8.83691 30.0076 9.14868 29.8215 9.33958L16.6933 22.7988C16.4052 23.0941 16.3776 23.5591 16.6512 23.8678C16.7718 24.0039 16.8957 24.137 17.0227 24.2671C21.4006 28.7553 28.4985 28.7553 32.8753 24.2671C33.057 24.0808 33.2324 23.8885 33.4011 23.6903C33.4501 23.6323 33.4755 23.558 33.4722 23.4821C33.469 23.4062 33.4374 23.3343 33.3836 23.2807L32.045 21.9263ZM25.6124 9.94864L21.9141 13.7999C21.8853 13.8299 21.8508 13.8538 21.8126 13.8701C21.7743 13.8865 21.7332 13.8949 21.6916 13.895C21.65 13.8951 21.6088 13.8868 21.5705 13.8706C21.5322 13.8544 21.4976 13.8306 21.4687 13.8007L20.1104 12.3958C20.0627 12.3475 20.0329 12.2843 20.0259 12.2167C20.0189 12.1491 20.0352 12.0812 20.0721 12.0241C21.4849 9.88327 23.9406 9.42135 25.4308 9.46593C25.6819 9.47359 25.7864 9.76759 25.6124 9.94864ZM27.9229 18.2764L24.2245 22.1271C24.0505 22.3084 24.1553 22.6021 24.4065 22.6098C25.8967 22.6544 28.3524 22.1924 29.7652 20.0516C29.8021 19.9946 29.8184 19.9267 29.8114 19.8591C29.8044 19.7916 29.7746 19.7285 29.7269 19.6802L28.3683 18.275C28.3394 18.2451 28.3047 18.2214 28.2665 18.2053C28.2282 18.1891 28.1871 18.1808 28.1455 18.1809C28.104 18.1809 28.0629 18.1894 28.0247 18.2057C27.9864 18.222 27.9519 18.2459 27.9231 18.2758L27.9229 18.2764Z" fill="black"/>
<path d="M41.3824 22.6637V21.1163L46.7124 14.4361V14.3486H41.5575V12.3302H49.6937V13.9919L44.6195 20.5581V20.6456H49.8688V22.6637H41.3824ZM55.1331 22.8721C54.4781 22.8721 53.888 22.7556 53.3633 22.5223C52.8426 22.2847 52.4301 21.9349 52.1247 21.4729C51.8243 21.0107 51.6739 20.4413 51.6739 19.7642C51.6739 19.1811 51.7817 18.699 51.997 18.3177C52.2071 17.9419 52.5108 17.6267 52.8787 17.4029C53.2511 17.1743 53.6705 17.0014 54.137 16.8849C54.6168 16.7622 55.1048 16.6745 55.5973 16.6224C56.2031 16.5595 56.6944 16.5037 57.0714 16.4544C57.4482 16.4003 57.7217 16.3199 57.8922 16.2121C58.0673 16.1 58.1548 15.9271 58.1548 15.6941V15.6537C58.1548 15.1469 58.0043 14.7544 57.704 14.4763C57.4033 14.1984 56.9702 14.0592 56.405 14.0592C55.8083 14.0592 55.335 14.1894 54.9851 14.4495C54.6395 14.7096 54.4062 15.017 54.2852 15.3711L52.0104 15.0484C52.1898 14.4202 52.4859 13.8957 52.8987 13.474C53.3115 13.0479 53.8163 12.7295 54.413 12.5187C55.0097 12.3034 55.6693 12.1959 56.3916 12.1959C56.8895 12.1959 57.3852 12.2542 57.8788 12.371C58.3603 12.4823 58.8182 12.678 59.2314 12.9491C59.6398 13.2139 59.9673 13.5749 60.2141 14.0321C60.4652 14.49 60.5911 15.0618 60.5911 15.748V22.6637H58.2489V21.2443H58.1682C58.0202 21.5315 57.8115 21.8003 57.5423 22.0514C57.2777 22.2981 56.9434 22.4977 56.5396 22.6503C56.1401 22.798 55.6715 22.8721 55.1331 22.8721ZM55.7656 21.0827C56.2548 21.0827 56.6786 20.9864 57.0375 20.7933C57.3964 20.5961 57.6725 20.3361 57.8654 20.0131C58.0611 19.6957 58.1637 19.3297 58.1614 18.9569V17.7393C58.0851 17.8022 57.9551 17.8604 57.7713 17.9143C57.5918 17.9679 57.3899 18.015 57.1655 18.0554C56.9412 18.0956 56.719 18.1317 56.4991 18.1629C56.2794 18.1944 56.0887 18.2214 55.9273 18.2439C55.5637 18.2931 55.2384 18.3738 54.9514 18.4859C54.6641 18.598 54.4376 18.755 54.2716 18.9569C54.1058 19.154 54.0226 19.4097 54.0226 19.7237C54.0226 20.1722 54.1865 20.5111 54.5139 20.7397C54.8414 20.9684 55.2586 21.0827 55.7656 21.0827ZM71.9038 12.3305L68.2225 22.6637H65.5307L61.8493 12.3305H64.447L66.8228 20.0062H66.9303L69.3127 12.3305H71.9038ZM77.8141 22.8653C76.7777 22.8653 75.8826 22.65 75.1288 22.2198C74.3798 21.7847 73.8031 21.1702 73.3995 20.3765C72.9957 19.5779 72.7938 18.6385 72.7938 17.5577C72.7938 16.4946 72.9957 15.5618 73.3995 14.7591C73.8077 13.9517 74.3776 13.3238 75.1086 12.8753C75.8402 12.4224 76.6992 12.1959 77.6863 12.1959C78.3232 12.1959 78.9246 12.299 79.4898 12.5053C80.0555 12.7045 80.5703 13.0261 80.9972 13.4472C81.4369 13.8732 81.7824 14.4158 82.0336 15.0752C82.285 15.73 82.4106 16.5102 82.4106 17.4163V18.1629H73.9377V16.5214H80.0753C80.0709 16.0551 79.9699 15.6403 79.7724 15.2771C79.5822 14.9167 79.2957 14.6162 78.9448 14.409C78.5949 14.1984 78.1864 14.0929 77.72 14.0929C77.2218 14.0929 76.7846 14.214 76.4076 14.4563C76.0364 14.6878 75.7325 15.0126 75.5261 15.3982C75.3195 15.7838 75.2142 16.2077 75.2098 16.6694V18.1025C75.2098 18.7033 75.3195 19.2191 75.5395 19.6499C75.7592 20.0757 76.0667 20.4033 76.4615 20.632C76.8563 20.8562 77.3183 20.9684 77.8477 20.9684C78.2023 20.9684 78.5229 20.9191 78.8102 20.8204C79.0875 20.7231 79.3418 20.5697 79.5571 20.3697C79.768 20.1722 79.9273 19.928 80.035 19.6365L82.3096 19.8919C82.166 20.493 81.8924 21.0176 81.4886 21.4661C81.0892 21.9103 80.5778 22.2557 79.9541 22.5021C79.3306 22.7444 78.6173 22.8653 77.8141 22.8653ZM85.9724 22.8117C85.5639 22.8117 85.214 22.6681 84.9224 22.3812C84.631 22.094 84.4874 21.7442 84.4917 21.3316C84.4874 20.9279 84.631 20.5827 84.9224 20.2956C85.214 20.0084 85.5639 19.8651 85.9724 19.8651C86.3672 19.8651 86.7102 20.0087 87.0019 20.2956C87.2982 20.5827 87.4484 20.9279 87.4528 21.3316C87.4484 21.605 87.3764 21.8539 87.2374 22.0782C87.1057 22.2997 86.9206 22.4848 86.699 22.6167C86.4791 22.7467 86.2279 22.8142 85.9724 22.8117ZM89.9681 22.6637V12.3305H92.4044V22.6637H89.9681ZM91.1929 10.8638C90.8072 10.8638 90.475 10.7361 90.1968 10.4804C89.9188 10.2203 89.7796 9.90849 89.7796 9.54502C89.7796 9.17745 89.9188 8.86568 90.1968 8.61024C90.475 8.34988 90.8072 8.21997 91.1929 8.21997C91.5833 8.21997 91.9152 8.34988 92.1888 8.61024C92.467 8.86568 92.6063 9.17745 92.6063 9.5453C92.6063 9.90849 92.467 10.2203 92.1888 10.4804C91.9152 10.7361 91.5833 10.8638 91.1929 10.8638ZM100.071 12.3305V14.214H94.129V12.3305H100.071ZM95.596 9.85461H98.0323V19.5555C98.0323 19.8829 98.081 20.1342 98.1803 20.309C98.2829 20.4794 98.418 20.5961 98.5835 20.659C98.7499 20.7219 98.9337 20.7531 99.1356 20.7531C99.288 20.7531 99.427 20.7419 99.5529 20.7195C99.6828 20.6971 99.7821 20.6768 99.8492 20.6588L100.26 22.5628C100.13 22.6076 99.9435 22.6569 99.7009 22.7108C99.4634 22.7646 99.1712 22.7961 98.826 22.8048C98.2159 22.8229 97.6662 22.731 97.1771 22.5292C96.6887 22.3229 96.3005 22.0043 96.0132 21.5739C95.7301 21.1434 95.5911 20.6052 95.596 19.9592V9.85461Z" fill="black"/>
</g>
<defs>
<clipPath id="clip0_17_1870">
<rect width="87" height="23.52" fill="white" transform="translate(14.5 4.38049)"/>
</clipPath>
</defs>
</svg>
